<!DOCTYPE svg PUBLIC "-//W3C//DTD SVG 20010904//EN" "http://www.w3.org/TR/2001/REC-SVG-20010904/DTD/svg10.dtd">
<svg version="1.0" xmlns="http://www.w3.org/2000/svg" width="600px" height="200px" viewBox="0 0 6000 2000" preserveAspectRatio="xMidYMid meet">
<g id="layer101" fill="#4bb0b4" stroke="none">
 <path d="M5047 552 l-47 -48 50 -49 50 -49 50 49 50 49 -47 48 c-26 26 -50 48 -53 48 -3 0 -27 -22 -53 -48z"/>
 </g>
<g id="layer102" fill="#fefefe" stroke="none">
 <path d="M5210 1698 c-43 -21 -120 -89 -120 -106 0 -5 -8 -24 -17 -43 -24 -46 -24 -162 0 -208 9 -19 17 -40 17 -46 0 -17 94 -103 125 -115 58 -22 235 -5 235 22 0 4 6 8 14 8 7 0 21 12 31 26 16 25 16 28 -6 70 -34 66 -43 71 -83 40 -27 -20 -46 -26 -84 -26 -50 0 -75 16 -101 67 -37 73 21 182 97 183 33 0 89 -24 104 -45 12 -16 40 7 66 54 22 38 22 44 9 64 -8 12 -39 34 -69 50 -70 34 -151 36 -218 5z"/>
 <path d="M4487 1703 c-28 -7 -19 -56 11 -58 13 -1 28 -8 33 -16 11 -16 4 -67 -15 -113 -30 -70 -56 -142 -56 -154 0 -7 13 -12 33 -12 32 0 33 1 57 80 l25 80 17 -37 c10 -21 18 -46 18 -55 0 -9 5 -29 12 -43 9 -20 18 -25 46 -25 29 0 33 3 27 18 -4 9 -11 31 -16 49 -5 18 -16 45 -24 60 -8 15 -15 33 -15 40 0 13 -20 63 -52 129 -11 23 -31 47 -44 53 -26 11 -28 12 -57 4z"/>
 <path d="M4214 1597 c-2 -7 -3 -87 -2 -177 l3 -165 33 -3 32 -3 0 56 c0 51 2 56 18 50 37 -16 50 -16 84 -2 57 24 89 128 57 190 -30 59 -47 67 -136 67 -59 0 -85 -4 -89 -13z m148 -54 c24 -21 25 -99 1 -125 -39 -43 -83 -8 -83 67 0 44 3 54 23 63 31 15 38 14 59 -5z"/>
 <path d="M5600 1562 c0 -46 1 -48 45 -71 45 -24 45 -24 23 -37 -13 -7 -33 -18 -45 -23 -19 -9 -23 -19 -23 -56 0 -32 4 -45 14 -45 8 0 17 4 20 9 4 5 27 19 54 32 90 43 103 56 100 101 -2 33 -8 44 -33 57 -16 9 -56 31 -87 49 -32 17 -60 32 -63 32 -3 0 -5 -21 -5 -48z"/>
 <path d="M4975 1591 c-10 -9 -112 -65 -153 -85 -19 -9 -22 -18 -20 -50 3 -37 6 -41 64 -71 34 -18 72 -40 85 -49 39 -27 49 -21 49 29 0 42 -2 46 -37 62 -20 10 -38 23 -40 29 -2 6 15 19 37 30 38 18 40 21 40 67 0 46 -6 56 -25 38z"/>
 <path d="M2905 1016 c-63 -29 -70 -45 -73 -191 -4 -159 6 -192 64 -220 54 -26 194 -26 248 0 55 27 66 60 66 207 0 133 -7 158 -53 192 -24 17 -45 21 -125 24 -66 1 -107 -2 -127 -12z m153 -208 l3 -98 -41 0 -40 0 0 93 c0 52 3 97 7 101 4 4 21 6 38 4 l30 -3 3 -97z"/>
 <path d="M5030 925 l0 -106 -35 -31 c-34 -29 -36 -34 -33 -82 l3 -51 135 0 135 0 6 50 c6 48 5 51 -33 83 l-38 34 0 104 0 104 -70 0 -70 0 0 -105z"/>
 <path d="M336 1004 c-11 -29 -6 -72 10 -88 12 -12 36 -16 100 -16 119 0 114 -16 -11 -35 -22 -3 -50 -14 -63 -24 -49 -36 -52 -168 -5 -215 30 -30 77 -38 193 -34 l85 3 3 54 c2 37 -1 57 -10 62 -7 5 -46 9 -85 9 -40 0 -73 4 -73 9 0 5 32 15 72 21 102 18 118 36 118 135 0 71 -2 79 -29 106 l-29 29 -135 0 c-114 0 -136 -2 -141 -16z"/>
 <path d="M732 808 l3 -213 111 -3 c176 -4 221 22 231 134 6 71 -12 130 -47 156 -16 11 -51 21 -93 25 l-67 6 0 53 0 54 -70 0 -70 0 2 -212z m203 -58 c0 -32 -3 -35 -32 -38 -32 -3 -33 -3 -33 38 0 41 1 41 33 38 29 -3 32 -6 32 -38z"/>
 <path d="M1132 808 l3 -213 155 0 155 0 3 58 3 57 -91 0 c-83 0 -90 1 -90 20 0 18 7 20 65 20 l65 0 0 55 0 55 -65 0 c-58 0 -65 2 -65 20 0 18 7 20 74 20 103 0 106 2 106 66 l0 54 -160 0 -160 0 2 -212z"/>
 <path d="M1512 808 l3 -213 65 0 65 0 3 153 3 152 34 0 c34 0 35 -1 35 -39 0 -67 5 -71 76 -71 l64 0 0 115 0 115 -175 0 -175 0 2 -212z"/>
 <path d="M1922 808 l3 -213 65 0 65 0 3 153 3 152 34 0 34 0 3 -52 3 -53 65 0 65 0 3 113 3 112 -176 0 -175 0 2 -212z"/>
 <path d="M2320 966 c0 -65 2 -66 111 -66 43 0 79 -4 79 -9 0 -9 -19 -14 -97 -26 -23 -4 -53 -17 -67 -30 -24 -22 -26 -31 -26 -104 0 -76 1 -80 30 -105 38 -32 72 -38 185 -34 l90 3 3 54 c2 37 -1 57 -10 62 -7 5 -46 9 -85 9 -82 0 -98 15 -25 25 123 17 142 36 142 143 0 68 -2 76 -29 103 l-29 29 -136 0 -136 0 0 -54z"/>
 <path d="M3274 1007 c-2 -7 -3 -102 -2 -212 l3 -200 144 -3 c97 -2 148 1 157 9 8 7 14 30 14 55 0 55 -16 64 -109 64 -69 0 -71 1 -71 25 0 23 4 24 63 27 l62 3 0 55 0 55 -62 3 -63 3 0 64 0 65 -65 0 c-44 0 -67 -4 -71 -13z"/>
 <path d="M3762 808 l3 -213 65 0 65 0 3 153 3 152 34 0 c34 0 35 -1 35 -39 0 -67 5 -71 76 -71 l64 0 0 115 0 115 -175 0 -175 0 2 -212z"/>
 <path d="M4162 903 c4 -103 9 -128 38 -203 18 -47 40 -91 48 -97 10 -8 48 -13 104 -13 103 0 99 -3 147 128 28 74 31 95 31 193 l0 110 -67 -3 -68 -3 -3 -47 -3 -48 -44 0 -44 0 -3 48 -3 47 -69 3 -68 3 4 -118z m213 -125 c-4 -13 -9 -31 -11 -40 -8 -28 -31 -21 -43 13 -16 46 -15 49 25 49 32 0 35 -2 29 -22z"/>
 <path d="M4660 870 l0 -150 -42 0 c-62 0 -70 -8 -66 -71 l3 -54 164 -3 c112 -2 168 1 177 9 8 7 14 31 14 59 0 54 -7 60 -71 60 l-39 0 0 150 0 150 -70 0 -70 0 0 -150z"/>
 <path d="M5317 1013 c-13 -12 -8 -398 5 -411 7 -7 30 -12 52 -12 37 0 46 6 103 66 l63 67 0 -55 c0 -69 12 -80 82 -76 l53 3 3 213 2 213 -67 -3 -68 -3 -5 -47 c-4 -36 -15 -60 -45 -98 l-40 -51 -3 101 -3 100 -63 0 c-34 0 -66 -3 -69 -7z"/>
 <path d="M5027 574 c-38 -36 -67 -68 -65 -72 2 -4 33 -36 71 -71 l67 -64 68 64 c37 35 68 67 70 71 3 7 -122 130 -137 135 -3 1 -37 -27 -74 -63z m126 -22 l47 -48 -50 -49 -50 -49 -50 49 -50 49 47 48 c26 26 50 48 53 48 3 0 27 -22 53 -48z"/>
 </g>

</svg>