<svg xmlns="http://www.w3.org/2000/svg" xmlns:xlink="http://www.w3.org/1999/xlink" viewBox="1671 -81 64 64">
  <defs>
    <style>
      .cls-1 {
        clip-path: url(#clip-ContactUsIcon);
      }

      .cls-2, .cls-3, .cls-5 {
        fill: #fff;
      }

      .cls-3 {
        stroke: #fff;
      }

      .cls-4, .cls-5 {
        stroke: none;
      }

      .cls-6 {
        fill: none;
      }

      .cls-7 {
        fill: rgba(255,255,255,0);
      }
    </style>
    <clipPath id="clip-ContactUsIcon">
      <rect x="1671" y="-81" width="64" height="64"/>
    </clipPath>
  </defs>
  <g id="ContactUsIcon" class="cls-1">
    <rect class="cls-7" x="1671" y="-81" width="64" height="64"/>
    <g id="chat" transform="translate(1671.981 -80)">
      <g id="Group_2" data-name="Group 2" transform="translate(0.019)">
        <g id="Path_1" data-name="Path 1" class="cls-2" transform="translate(-0.019)">
          <path class="cls-4" d="M 31.04739952087402 62.5 C 26.93547821044922 62.5 22.92237854003906 61.71356964111328 19.11957931518555 60.16255187988281 C 15.22334861755371 58.57342910766602 11.73439884185791 56.25439071655273 8.749619483947754 53.26985931396484 C 2.796979188919067 47.31769180297852 -0.4812909066677094 39.40877151489258 -0.4812909066677094 31 C -0.4812909066677094 22.59967994689941 2.801629066467285 14.69077014923096 8.76271915435791 8.73015022277832 C 14.71535873413086 2.778000116348267 22.6248893737793 -0.5 31.03428840637207 -0.5 C 39.44368743896484 -0.5 47.35321807861328 2.778000116348267 53.30585098266602 8.73015022277832 C 58.86462783813477 14.28847980499268 62.12466812133789 21.68709945678711 62.48545074462891 29.5631103515625 C 62.84044647216797 37.31317520141602 60.36141586303711 44.85243606567383 55.49935150146484 50.83154678344727 C 56.40268325805664 52.57026672363281 57.90019989013672 54.74435043334961 60.09440994262695 55.82316970825195 C 61.43679046630859 56.48661041259766 62.1837272644043 57.91986083984375 61.9539909362793 59.39009094238281 C 61.72299957275391 60.86819076538086 60.58089065551758 62.01546859741211 59.11201095581055 62.24496078491211 C 58.30363082885742 62.37071990966797 57.45301055908203 62.4344596862793 56.58346939086914 62.4344596862793 C 53.87976837158203 62.4344596862793 49.80860900878906 61.81577682495117 45.63924026489258 58.9030647277832 C 41.15946578979492 61.25713729858398 36.12120819091797 62.5 31.04739952087402 62.5 Z M 31.04247856140137 4.055500030517578 C 23.83332824707031 4.055500030517578 17.0659294128418 6.85584020614624 11.98691940307617 11.94067001342773 C 6.895539283752441 17.02541923522949 4.090909004211426 23.79404067993164 4.089229106903076 31.00012016296387 C 4.087559223175049 38.20492172241211 6.887609004974365 44.97354125976563 11.97359943389893 50.05912017822266 C 17.0717887878418 55.15690994262695 23.8498592376709 57.96456909179688 31.0592098236084 57.96492004394531 C 31.05950164794922 57.96492004394531 31.06020355224609 57.96492004394531 31.06049537658691 57.96492004394531 C 35.845703125 57.96492004394531 40.55825042724609 56.68204116821289 44.68951034545898 54.25473022460938 C 45.03733825683594 54.04862976074219 45.43510818481445 53.93918991088867 45.83821868896484 53.93918991088867 C 46.42055130004883 53.93918991088867 46.97073364257813 54.15847015380859 47.39530563354492 54.55816268920898 C 47.45475006103516 54.59502792358398 47.51227188110352 54.63887023925781 47.56362152099609 54.68660736083984 C 50.30372619628906 56.80318069458008 53.00172424316406 57.58538055419922 55.1085319519043 57.81473159790039 C 53.00480270385742 55.8651008605957 51.63293075561523 53.39241790771484 50.81649780273438 51.53107833862305 L 50.81438827514648 51.52627944946289 L 50.8123893737793 51.52143859863281 C 50.62184524536133 51.06100845336914 50.57959747314453 50.57069396972656 50.68964004516602 50.10124206542969 C 50.74688339233398 49.64717483520508 50.94045257568359 49.20998001098633 51.23679733276367 48.86685180664063 L 51.23880004882813 48.86454010009766 L 51.24081802368164 48.86225128173828 C 60.66434860229492 38.21657943725586 60.16679000854492 21.9987907409668 50.10808944702148 11.94089031219482 C 45.02272033691406 6.855909824371338 38.25175857543945 4.055500030517578 31.04247856140137 4.055500030517578 Z"/>
          <path class="cls-5" d="M 31.04739952087402 62 C 36.04187774658203 62 41.07567977905273 60.79409027099609 45.67688751220703 58.31671142578125 C 49.80619049072266 61.29217910766602 53.84371948242188 61.9344596862793 56.58346939086914 61.9344596862793 C 57.60596084594727 61.9344596862793 58.44493865966797 61.84272003173828 59.03482818603516 61.75094985961914 C 60.29327774047852 61.55434036254883 61.26332855224609 60.57125854492188 61.45998001098633 59.31290054321289 C 61.65660858154297 58.05456161499023 61.0142707824707 56.83552169799805 59.87379837036133 56.27186965942383 C 57.5010871887207 55.10528945922852 55.90181732177734 52.77209854125977 54.90554046630859 50.7665901184082 C 65.06491088867188 38.5369987487793 64.27838897705078 20.40888023376465 52.95230865478516 9.083720207214355 C 47.09264755249023 3.224529981613159 39.31908798217773 -3.552713678800501e-15 31.03428840637207 -3.552713678800501e-15 C 22.74947929382324 -3.552713678800501e-15 14.97592926025391 3.224529981613159 9.11625862121582 9.083720207214355 C 3.25658917427063 14.94291973114014 0.01870908215641975 22.71586036682129 0.01870908215641975 31 C 0.01870908215641975 39.28416061401367 3.243489027023315 47.05709075927734 9.103158950805664 52.91629028320313 C 15.0807991027832 58.89345169067383 23.0247688293457 62 31.04739952087402 62 M 31.04248237609863 3.555495023727417 C 38.07375335693359 3.555495023727417 45.10665893554688 6.232769966125488 50.46162796020508 11.58732032775879 C 60.71276092529297 21.8376293182373 61.21091079711914 38.35348892211914 51.61520767211914 49.19366073608398 C 51.36614990234375 49.48204040527344 51.22195053100586 49.83592987060547 51.1826171875 50.18984985351563 C 51.09085845947266 50.55686950683594 51.11708068847656 50.95011901855469 51.27438735961914 51.33023834228516 C 52.25754928588867 53.57167816162109 53.93547821044922 56.45539855957031 56.59658050537109 58.39535140991211 L 56.58346939086914 58.39535140991211 C 54.27629852294922 58.39535140991211 50.78936004638672 57.81861877441406 47.23685073852539 55.06597137451172 C 47.19752883911133 55.02664947509766 47.14508819580078 54.98731994628906 47.09264755249023 54.96110153198242 C 46.75325012207031 54.62173080444336 46.29985427856445 54.43919372558594 45.83821487426758 54.43919372558594 C 45.53315353393555 54.43919372558594 45.22446060180664 54.51893997192383 44.94279861450195 54.68582916259766 C 40.61787414550781 57.22692489624023 35.82334518432617 58.46515274047852 31.05918884277344 58.46492004394531 C 23.95352554321289 58.46457672119141 16.91704940795898 55.70926284790039 11.6200590133667 50.41268920898438 C 0.9101091027259827 39.70359039306641 0.9101091027259827 22.29640960693359 11.63315868377686 11.58732032775879 C 16.9815788269043 6.232769966125488 24.01121139526367 3.555495023727417 31.04248237609863 3.555495023727417 M 31.04739952087402 63 C 26.87041854858398 63 22.79378890991211 62.20111083984375 18.93074989318848 60.62553024291992 C 14.97255897521973 59.01113128662109 11.42817878723145 56.65528106689453 8.396079063415527 53.62342834472656 C 2.348989009857178 47.57682037353516 -0.9812909364700317 39.54233169555664 -0.9812909364700317 31 C -0.9812909364700317 22.46611976623535 2.353639125823975 14.43163967132568 8.409178733825684 8.376580238342285 C 14.45625877380371 2.329999923706055 22.4913387298584 -1 31.03428840637207 -1 C 39.57723999023438 -1 47.61231994628906 2.329999923706055 53.65938949584961 8.376580238342285 C 59.30654907226563 14.02328968048096 62.61842727661133 21.53936004638672 62.98492050170898 29.54022979736328 C 63.34045028686523 37.30167388916016 60.89748764038086 44.85563659667969 56.09561538696289 50.8880615234375 C 56.97443389892578 52.50352096557617 58.35820388793945 54.41236877441406 60.31501770019531 55.37446975708008 C 61.85519790649414 56.13566970825195 62.71163940429688 57.78007888793945 62.44799041748047 59.46728897094727 C 62.18330001831055 61.1610107421875 60.87368774414063 62.47578811645508 59.18918991088867 62.73896026611328 C 58.35514068603516 62.86872100830078 57.47866058349609 62.9344596862793 56.58346939086914 62.9344596862793 C 53.86172866821289 62.9344596862793 49.79112243652344 62.32444000244141 45.60317230224609 59.48520278930664 C 41.11956405639648 61.78644180297852 36.10087585449219 63 31.04739952087402 63 Z M 31.04247856140137 4.555500030517578 C 23.96697998046875 4.555500030517578 17.32521820068359 7.303760051727295 12.34066867828369 12.29401969909668 C 7.343419075012207 17.28476905822754 4.590878963470459 23.92778968811035 4.589229106903076 31.00023078918457 C 4.587589263916016 38.07143020629883 7.335628986358643 44.71443939208984 12.32713890075684 49.70555877685547 C 17.33089828491211 54.70891952514648 23.98341941833496 57.46458053588867 31.05923843383789 57.46492004394531 C 35.75658798217773 57.46492004394531 40.38182830810547 56.20578002929688 44.43621826171875 53.82363891601563 C 44.85957717895508 53.57278060913086 45.34547805786133 53.43918991088867 45.83821868896484 53.43918991088867 C 46.53297805786133 53.43918991088867 47.18988800048828 53.69460296630859 47.70259094238281 54.16127777099609 C 47.76682281494141 54.20407104492188 47.82842254638672 54.25192260742188 47.88588714599609 54.30373001098633 C 49.9287223815918 55.87770843505859 51.94397735595703 56.68581390380859 53.69065093994141 57.07426071166992 C 52.12320327758789 55.29769515991211 51.04733657836914 53.30210494995117 50.35860824584961 51.73192977905273 L 50.35440063476563 51.72232055664063 L 50.35038757324219 51.71263122558594 C 50.12300109863281 51.16318130493164 50.07030487060547 50.5770149230957 50.1968879699707 50.01303482055664 C 50.27061080932617 49.46477890014648 50.49853515625 48.95670700073242 50.85839080810547 48.54003143310547 L 50.86238098144531 48.5354118347168 L 50.86642837524414 48.53084182739258 C 60.11508941650391 38.08272171020508 59.62668991088867 22.16580963134766 49.75455093383789 12.29446029663086 C 44.76361846923828 7.303909778594971 38.11820983886719 4.555500030517578 31.04247856140137 4.555500030517578 Z"/>
        </g>
        <g id="Ellipse_1" data-name="Ellipse 1" class="cls-3" transform="translate(28.25 28.824)">
          <ellipse class="cls-4" cx="2.765" cy="2.765" rx="2.765" ry="2.765"/>
          <ellipse class="cls-6" cx="2.765" cy="2.765" rx="3.265" ry="3.265"/>
        </g>
        <g id="Ellipse_2" data-name="Ellipse 2" class="cls-3" transform="translate(13.99 28.824)">
          <ellipse class="cls-4" cx="2.765" cy="2.765" rx="2.765" ry="2.765"/>
          <ellipse class="cls-6" cx="2.765" cy="2.765" rx="3.265" ry="3.265"/>
        </g>
        <g id="Ellipse_3" data-name="Ellipse 3" class="cls-3" transform="translate(42.51 28.824)">
          <ellipse class="cls-4" cx="2.765" cy="2.765" rx="2.765" ry="2.765"/>
          <ellipse class="cls-6" cx="2.765" cy="2.765" rx="3.265" ry="3.265"/>
        </g>
      </g>
    </g>
  </g>
</svg>
