<svg id="svg" version="1.1" width="400" height="70.63063063063063" xmlns="http://www.w3.org/2000/svg" xmlns:xlink="http://www.w3.org/1999/xlink" style="display: block;"><g id="svgg"><path id="path0" d="M349.833 1.833 C 349.833 1.925,349.676 2.000,349.484 2.000 C 349.276 2.000,349.100 2.134,349.048 2.333 C 349.000 2.517,348.906 2.667,348.839 2.667 C 348.592 2.667,348.000 3.298,348.000 3.561 C 348.000 3.726,347.863 3.833,347.651 3.833 C 347.442 3.833,347.267 3.967,347.215 4.167 C 347.167 4.351,346.988 4.500,346.814 4.500 C 346.611 4.500,346.500 4.618,346.500 4.833 C 346.500 5.017,346.428 5.167,346.341 5.167 C 346.145 5.167,345.333 5.963,345.333 6.155 C 345.333 6.232,345.183 6.334,345.000 6.382 C 344.817 6.430,344.667 6.588,344.667 6.734 C 344.667 6.889,344.527 7.000,344.333 7.000 C 344.111 7.000,344.000 7.111,344.000 7.333 C 344.000 7.517,343.928 7.667,343.841 7.667 C 343.634 7.667,342.833 8.468,342.833 8.674 C 342.833 8.762,342.683 8.833,342.500 8.833 C 342.285 8.833,342.167 8.944,342.167 9.147 C 342.167 9.321,342.018 9.500,341.833 9.548 C 341.634 9.600,341.500 9.776,341.500 9.984 C 341.500 10.182,341.393 10.333,341.252 10.333 C 340.931 10.333,340.333 10.845,340.333 11.120 C 340.333 11.238,340.183 11.333,340.000 11.333 C 339.785 11.333,339.667 11.444,339.667 11.647 C 339.667 11.821,339.518 12.000,339.333 12.048 C 339.134 12.100,339.000 12.276,339.000 12.484 C 339.000 12.712,338.893 12.833,338.692 12.833 C 338.321 12.833,337.833 13.337,337.833 13.721 C 337.833 13.875,337.758 14.000,337.667 14.000 C 337.179 14.000,349.149 26.199,349.856 26.424 C 350.259 26.552,362.333 14.529,362.333 14.000 C 362.333 13.684,361.662 12.833,361.412 12.833 C 361.275 12.833,360.833 12.386,360.833 12.248 C 360.833 12.187,360.402 11.733,359.875 11.238 C 358.776 10.207,358.862 10.292,358.027 9.417 C 357.678 9.050,357.172 8.553,356.904 8.311 C 356.636 8.070,356.077 7.508,355.663 7.061 C 355.248 6.615,354.704 6.101,354.454 5.919 C 354.204 5.737,354.000 5.536,354.000 5.474 C 354.000 5.345,352.518 3.833,352.392 3.833 C 352.276 3.833,351.833 3.378,351.833 3.259 C 351.833 3.102,350.654 2.000,350.486 2.000 C 350.402 2.000,350.333 1.925,350.333 1.833 C 350.333 1.742,350.221 1.667,350.083 1.667 C 349.946 1.667,349.833 1.742,349.833 1.833 M354.582 9.479 C 357.012 11.897,358.999 13.959,358.998 14.062 C 358.995 14.349,350.260 23.000,349.974 23.000 C 349.836 23.000,349.345 22.606,348.883 22.125 C 348.421 21.644,347.752 20.980,347.397 20.650 C 347.041 20.319,346.476 19.757,346.140 19.400 C 345.805 19.042,345.036 18.267,344.432 17.677 C 343.828 17.087,343.333 16.543,343.333 16.469 C 343.333 16.394,343.256 16.333,343.160 16.333 C 342.915 16.333,341.004 14.295,341.002 14.031 C 340.999 13.748,349.788 4.957,350.002 5.029 C 350.090 5.059,352.151 7.061,354.582 9.479 M345.833 29.500 C 345.833 29.592,345.721 29.667,345.583 29.667 C 345.363 29.667,345.333 31.593,345.333 46.000 C 345.333 60.407,345.363 62.333,345.583 62.333 C 345.721 62.333,345.833 62.446,345.833 62.583 C 345.833 62.799,346.398 62.833,349.917 62.833 C 353.435 62.833,354.000 62.799,354.000 62.583 C 354.000 62.446,354.075 62.333,354.167 62.333 C 354.461 62.333,354.390 29.866,354.095 29.571 C 353.804 29.280,345.833 29.211,345.833 29.500 M198.667 32.000 C 198.667 32.092,198.292 32.167,197.833 32.167 C 197.375 32.167,197.000 32.242,197.000 32.333 C 197.000 32.425,196.662 32.500,196.250 32.500 C 195.838 32.500,195.500 32.575,195.500 32.667 C 195.500 32.758,195.350 32.833,195.167 32.833 C 194.981 32.833,194.833 32.944,194.833 33.083 C 194.833 33.239,194.676 33.333,194.417 33.333 C 194.188 33.333,194.000 33.408,194.000 33.500 C 194.000 33.592,193.882 33.667,193.737 33.667 C 193.592 33.667,193.186 33.967,192.833 34.333 C 192.481 34.700,192.112 35.000,192.013 35.000 C 191.914 35.000,191.833 35.096,191.833 35.213 C 191.833 35.330,191.683 35.535,191.500 35.667 C 191.304 35.808,191.167 36.098,191.167 36.370 C 191.167 36.625,191.092 36.833,191.000 36.833 C 190.908 36.833,190.833 37.096,190.833 37.417 C 190.833 37.737,190.758 38.000,190.667 38.000 C 190.558 38.000,190.500 41.278,190.500 47.500 C 190.500 53.722,190.558 57.000,190.667 57.000 C 190.758 57.000,190.833 57.337,190.833 57.750 C 190.833 58.163,190.908 58.500,191.000 58.500 C 191.092 58.500,191.167 58.633,191.167 58.797 C 191.167 58.960,191.317 59.201,191.500 59.333 C 191.683 59.465,191.833 59.707,191.833 59.870 C 191.833 60.033,191.946 60.167,192.083 60.167 C 192.221 60.167,192.333 60.279,192.333 60.417 C 192.333 60.554,192.467 60.667,192.630 60.667 C 192.793 60.667,193.035 60.817,193.167 61.000 C 193.299 61.183,193.540 61.333,193.703 61.333 C 193.867 61.333,194.000 61.408,194.000 61.500 C 194.000 61.592,194.188 61.667,194.417 61.667 C 194.646 61.667,194.833 61.742,194.833 61.833 C 194.833 61.925,194.983 62.000,195.167 62.000 C 195.350 62.000,195.500 62.075,195.500 62.167 C 195.500 62.258,195.838 62.333,196.250 62.333 C 196.806 62.333,197.000 62.398,197.000 62.583 C 197.000 62.772,197.204 62.833,197.833 62.833 C 198.292 62.833,198.667 62.908,198.667 63.000 C 198.667 63.108,200.528 63.167,203.917 63.167 C 207.306 63.167,209.167 63.108,209.167 63.000 C 209.167 62.908,209.579 62.833,210.083 62.833 C 210.787 62.833,211.000 62.775,211.000 62.583 C 211.000 62.417,211.167 62.333,211.500 62.333 C 211.775 62.333,212.000 62.258,212.000 62.167 C 212.000 62.075,212.262 62.000,212.583 62.000 C 212.904 62.000,213.167 61.925,213.167 61.833 C 213.167 61.742,213.300 61.667,213.463 61.667 C 213.626 61.667,213.868 61.517,214.000 61.333 C 214.132 61.150,214.379 61.000,214.549 61.000 C 214.867 61.000,215.333 60.633,215.333 60.382 C 215.333 60.304,215.483 60.132,215.667 60.000 C 215.850 59.868,216.000 59.626,216.000 59.463 C 216.000 59.300,216.075 59.167,216.167 59.167 C 216.258 59.167,216.333 59.025,216.333 58.851 C 216.333 58.678,216.446 58.492,216.583 58.440 C 216.729 58.384,216.833 58.134,216.833 57.839 C 216.833 57.561,216.908 57.333,217.000 57.333 C 217.109 57.333,217.167 53.944,217.167 47.500 C 217.167 41.056,217.109 37.667,217.000 37.667 C 216.908 37.667,216.833 37.439,216.833 37.161 C 216.833 36.866,216.729 36.616,216.583 36.560 C 216.446 36.508,216.333 36.322,216.333 36.149 C 216.333 35.975,216.258 35.833,216.167 35.833 C 216.075 35.833,216.000 35.681,216.000 35.494 C 216.000 35.074,214.952 34.000,214.542 34.000 C 214.376 34.000,214.132 33.850,214.000 33.667 C 213.868 33.483,213.634 33.333,213.481 33.333 C 213.328 33.333,213.159 33.221,213.106 33.083 C 213.050 32.937,212.801 32.833,212.505 32.833 C 212.227 32.833,212.000 32.758,212.000 32.667 C 212.000 32.575,211.775 32.500,211.500 32.500 C 211.225 32.500,211.000 32.425,211.000 32.333 C 211.000 32.242,210.588 32.167,210.083 32.167 C 209.579 32.167,209.167 32.092,209.167 32.000 C 209.167 31.892,207.306 31.833,203.917 31.833 C 200.528 31.833,198.667 31.892,198.667 32.000 M16.833 32.333 C 16.833 32.425,16.496 32.500,16.083 32.500 C 15.671 32.500,15.333 32.575,15.333 32.667 C 15.333 32.758,15.183 32.833,15.000 32.833 C 14.815 32.833,14.667 32.944,14.667 33.083 C 14.667 33.223,14.518 33.333,14.332 33.333 C 13.936 33.333,11.667 35.524,11.667 35.906 C 11.667 36.050,11.592 36.167,11.500 36.167 C 11.408 36.167,11.333 36.392,11.333 36.667 C 11.333 36.942,11.258 37.167,11.167 37.167 C 11.060 37.167,11.000 38.833,11.000 41.833 C 11.000 44.833,11.060 46.500,11.167 46.500 C 11.258 46.500,11.333 46.762,11.333 47.083 C 11.333 47.404,11.408 47.667,11.500 47.667 C 11.592 47.667,11.667 47.785,11.667 47.929 C 11.667 48.228,12.056 48.667,12.321 48.667 C 12.420 48.667,12.500 48.744,12.500 48.839 C 12.500 49.108,13.626 50.167,13.911 50.167 C 14.052 50.167,14.167 50.242,14.167 50.333 C 14.167 50.425,14.429 50.500,14.750 50.500 C 15.071 50.500,15.333 50.575,15.333 50.667 C 15.333 50.758,15.550 50.833,15.816 50.833 C 16.090 50.833,16.339 50.941,16.394 51.083 C 16.467 51.275,16.783 51.333,17.745 51.333 C 18.470 51.333,19.000 51.404,19.000 51.500 C 19.000 51.596,19.528 51.667,20.250 51.667 C 20.972 51.667,21.500 51.737,21.500 51.833 C 21.500 51.930,22.028 52.000,22.750 52.000 C 23.472 52.000,24.000 52.070,24.000 52.167 C 24.000 52.258,24.150 52.333,24.333 52.333 C 24.612 52.333,24.667 52.444,24.667 53.012 C 24.667 54.210,24.925 54.167,17.833 54.167 C 12.546 54.167,11.436 54.207,11.238 54.405 C 10.947 54.696,10.878 62.333,11.167 62.333 C 11.258 62.333,11.333 62.446,11.333 62.583 C 11.333 62.802,12.444 62.833,20.333 62.833 C 28.222 62.833,29.333 62.802,29.333 62.583 C 29.333 62.398,29.528 62.333,30.083 62.333 C 30.496 62.333,30.833 62.258,30.833 62.167 C 30.833 62.075,30.983 62.000,31.167 62.000 C 31.350 62.000,31.500 61.925,31.500 61.833 C 31.500 61.742,31.650 61.667,31.833 61.667 C 32.017 61.667,32.167 61.592,32.167 61.500 C 32.167 61.408,32.245 61.333,32.341 61.333 C 32.547 61.333,33.333 60.576,33.333 60.378 C 33.333 60.302,33.483 60.132,33.667 60.000 C 33.850 59.868,34.000 59.626,34.000 59.463 C 34.000 59.300,34.075 59.167,34.167 59.167 C 34.258 59.167,34.333 59.017,34.333 58.833 C 34.333 58.648,34.444 58.500,34.583 58.500 C 34.758 58.500,34.833 58.324,34.833 57.917 C 34.833 57.596,34.908 57.333,35.000 57.333 C 35.107 57.333,35.167 55.722,35.167 52.833 C 35.167 49.944,35.107 48.333,35.000 48.333 C 34.908 48.333,34.833 48.108,34.833 47.833 C 34.833 47.500,34.750 47.333,34.583 47.333 C 34.446 47.333,34.333 47.193,34.333 47.022 C 34.333 46.586,32.610 44.833,32.181 44.833 C 31.990 44.833,31.833 44.758,31.833 44.667 C 31.833 44.575,31.683 44.500,31.500 44.500 C 31.315 44.500,31.167 44.389,31.167 44.250 C 31.167 44.065,30.972 44.000,30.417 44.000 C 30.004 44.000,29.667 43.925,29.667 43.833 C 29.667 43.739,29.194 43.667,28.583 43.667 C 27.972 43.667,27.500 43.594,27.500 43.500 C 27.500 43.404,26.972 43.333,26.250 43.333 C 25.528 43.333,25.000 43.263,25.000 43.167 C 25.000 43.069,24.417 43.000,23.583 43.000 C 22.750 43.000,22.167 42.931,22.167 42.833 C 22.167 42.742,22.017 42.667,21.833 42.667 C 21.650 42.667,21.500 42.592,21.500 42.500 C 21.500 42.408,21.387 42.333,21.250 42.333 C 21.094 42.333,21.000 42.176,21.000 41.917 C 21.000 41.688,21.096 41.500,21.213 41.500 C 21.330 41.500,21.535 41.350,21.667 41.167 C 21.899 40.845,22.098 40.833,27.378 40.833 L 32.848 40.833 33.258 40.424 C 33.701 39.981,33.921 33.177,33.500 32.917 C 33.408 32.860,33.333 32.668,33.333 32.490 C 33.333 32.174,33.139 32.167,25.083 32.167 C 19.694 32.167,16.833 32.224,16.833 32.333 M39.375 32.416 C 39.107 32.720,39.066 62.333,39.333 62.333 C 39.425 62.333,39.500 62.446,39.500 62.583 C 39.500 62.800,40.130 62.833,44.167 62.833 C 48.204 62.833,48.833 62.800,48.833 62.583 C 48.833 62.446,48.908 62.333,49.000 62.333 C 49.107 62.333,49.167 60.861,49.167 58.250 L 49.167 54.167 53.500 54.167 C 56.278 54.167,57.833 54.107,57.833 54.000 C 57.833 53.908,58.171 53.833,58.583 53.833 C 59.139 53.833,59.333 53.769,59.333 53.583 C 59.333 53.417,59.500 53.333,59.833 53.333 C 60.108 53.333,60.333 53.258,60.333 53.167 C 60.333 53.075,60.483 53.000,60.667 53.000 C 60.850 53.000,61.000 52.925,61.000 52.833 C 61.000 52.742,61.077 52.667,61.171 52.667 C 61.483 52.667,62.833 51.181,62.833 50.838 C 62.833 50.652,62.908 50.500,63.000 50.500 C 63.092 50.500,63.167 50.350,63.167 50.167 C 63.167 49.981,63.278 49.833,63.417 49.833 C 63.591 49.833,63.667 49.657,63.667 49.250 C 63.667 48.929,63.742 48.667,63.833 48.667 C 63.941 48.667,64.000 46.722,64.000 43.167 C 64.000 39.611,63.941 37.667,63.833 37.667 C 63.742 37.667,63.667 37.404,63.667 37.083 C 63.667 36.676,63.591 36.500,63.417 36.500 C 63.278 36.500,63.167 36.352,63.167 36.167 C 63.167 35.983,63.092 35.833,63.000 35.833 C 62.908 35.833,62.833 35.681,62.833 35.496 C 62.833 35.152,61.483 33.667,61.171 33.667 C 61.077 33.667,61.000 33.592,61.000 33.500 C 61.000 33.408,60.858 33.333,60.684 33.333 C 60.511 33.333,60.326 33.221,60.273 33.083 C 60.220 32.946,59.987 32.833,59.755 32.833 C 59.523 32.833,59.333 32.758,59.333 32.667 C 59.333 32.575,58.996 32.500,58.583 32.500 C 58.171 32.500,57.833 32.425,57.833 32.333 C 57.833 32.042,39.633 32.123,39.375 32.416 M68.208 32.416 C 67.940 32.720,67.899 62.333,68.167 62.333 C 68.258 62.333,68.333 62.446,68.333 62.583 C 68.333 62.803,69.685 62.833,79.500 62.833 C 89.315 62.833,90.667 62.803,90.667 62.583 C 90.667 62.446,90.742 62.333,90.833 62.333 C 91.122 62.333,91.053 54.696,90.762 54.405 C 90.564 54.207,89.467 54.167,84.262 54.167 L 78.000 54.167 78.000 52.750 L 78.000 51.333 82.667 51.333 L 87.333 51.333 87.333 50.917 C 87.333 50.688,87.408 50.500,87.500 50.500 C 87.605 50.500,87.667 49.306,87.667 47.250 C 87.667 45.194,87.605 44.000,87.500 44.000 C 87.408 44.000,87.333 43.850,87.333 43.667 C 87.333 43.341,87.222 43.333,82.667 43.333 L 78.000 43.333 78.000 42.083 L 78.000 40.833 84.262 40.833 C 89.467 40.833,90.564 40.793,90.762 40.595 C 91.113 40.245,91.113 32.755,90.762 32.405 C 90.406 32.049,68.522 32.060,68.208 32.416 M95.667 32.490 C 95.667 32.668,95.592 32.860,95.500 32.917 C 95.391 32.984,95.333 38.030,95.333 47.510 C 95.333 57.059,95.390 62.000,95.500 62.000 C 95.592 62.000,95.667 62.188,95.667 62.417 L 95.667 62.833 107.917 62.833 C 118.694 62.833,120.167 62.803,120.167 62.583 C 120.167 62.446,120.242 62.333,120.333 62.333 C 120.442 62.333,120.500 59.625,120.500 54.542 L 120.500 46.750 120.105 46.292 L 119.711 45.833 115.606 45.833 C 112.980 45.833,111.500 45.893,111.500 46.000 C 111.500 46.092,111.350 46.167,111.167 46.167 C 110.843 46.167,110.833 46.278,110.833 50.167 L 110.833 54.167 108.333 54.167 L 105.833 54.167 105.833 43.917 C 105.833 34.917,105.803 33.667,105.583 33.667 C 105.415 33.667,105.333 33.499,105.333 33.155 C 105.333 32.172,105.304 32.167,100.262 32.167 C 95.824 32.167,95.667 32.178,95.667 32.490 M125.042 32.416 C 124.927 32.546,124.833 32.806,124.833 32.993 C 124.833 33.180,124.758 33.333,124.667 33.333 C 124.557 33.333,124.500 38.167,124.500 47.500 C 124.500 56.833,124.557 61.667,124.667 61.667 C 124.758 61.667,124.833 61.817,124.833 62.000 C 124.833 62.183,124.908 62.333,125.000 62.333 C 125.092 62.333,125.167 62.446,125.167 62.583 C 125.167 62.803,126.620 62.833,137.250 62.833 C 147.880 62.833,149.333 62.803,149.333 62.583 C 149.333 62.446,149.408 62.333,149.500 62.333 C 149.609 62.333,149.667 59.528,149.667 54.250 C 149.667 46.278,149.662 46.167,149.333 46.167 C 149.150 46.167,149.000 46.092,149.000 46.000 C 149.000 45.893,147.520 45.833,144.894 45.833 L 140.789 45.833 140.395 46.292 C 140.006 46.744,140.000 46.800,140.000 50.458 L 140.000 54.167 137.500 54.167 L 135.000 54.167 135.000 43.692 C 135.000 34.499,134.968 33.154,134.738 32.692 L 134.476 32.167 129.863 32.173 C 126.093 32.178,125.212 32.223,125.042 32.416 M159.167 32.333 C 159.167 32.425,158.829 32.500,158.417 32.500 C 158.004 32.500,157.667 32.575,157.667 32.667 C 157.667 32.758,157.517 32.833,157.333 32.833 C 157.148 32.833,157.000 32.944,157.000 33.083 C 157.000 33.223,156.852 33.333,156.666 33.333 C 156.270 33.333,154.000 35.524,154.000 35.906 C 154.000 36.050,153.925 36.167,153.833 36.167 C 153.742 36.167,153.667 36.392,153.667 36.667 C 153.667 36.942,153.592 37.167,153.500 37.167 C 153.393 37.167,153.333 38.833,153.333 41.833 C 153.333 44.833,153.393 46.500,153.500 46.500 C 153.592 46.500,153.667 46.762,153.667 47.083 C 153.667 47.404,153.742 47.667,153.833 47.667 C 153.925 47.667,154.000 47.785,154.000 47.929 C 154.000 48.228,154.389 48.667,154.655 48.667 C 154.753 48.667,154.833 48.744,154.833 48.839 C 154.833 49.102,155.956 50.167,156.235 50.167 C 156.370 50.167,156.527 50.242,156.583 50.333 C 156.640 50.425,156.907 50.500,157.177 50.500 C 157.446 50.500,157.667 50.575,157.667 50.667 C 157.667 50.758,157.884 50.833,158.149 50.833 C 158.424 50.833,158.672 50.941,158.727 51.083 C 158.800 51.275,159.116 51.333,160.078 51.333 C 160.804 51.333,161.333 51.404,161.333 51.500 C 161.333 51.596,161.861 51.667,162.583 51.667 C 163.306 51.667,163.833 51.737,163.833 51.833 C 163.833 51.930,164.361 52.000,165.083 52.000 C 165.806 52.000,166.333 52.070,166.333 52.167 C 166.333 52.258,166.483 52.333,166.667 52.333 C 166.945 52.333,167.000 52.444,167.000 53.012 C 167.000 54.210,167.258 54.167,160.167 54.167 C 154.879 54.167,153.769 54.207,153.571 54.405 C 153.281 54.696,153.212 62.333,153.500 62.333 C 153.592 62.333,153.667 62.446,153.667 62.583 C 153.667 62.802,154.778 62.833,162.667 62.833 C 170.556 62.833,171.667 62.802,171.667 62.583 C 171.667 62.398,171.861 62.333,172.417 62.333 C 172.829 62.333,173.167 62.258,173.167 62.167 C 173.167 62.075,173.317 62.000,173.500 62.000 C 173.683 62.000,173.833 61.925,173.833 61.833 C 173.833 61.742,173.986 61.667,174.172 61.667 C 174.497 61.667,175.667 60.656,175.667 60.376 C 175.667 60.301,175.817 60.132,176.000 60.000 C 176.183 59.868,176.333 59.626,176.333 59.463 C 176.333 59.300,176.446 59.167,176.583 59.167 C 176.722 59.167,176.833 59.019,176.833 58.833 C 176.833 58.650,176.908 58.500,177.000 58.500 C 177.092 58.500,177.167 58.237,177.167 57.917 C 177.167 57.596,177.242 57.333,177.333 57.333 C 177.440 57.333,177.500 55.722,177.500 52.833 C 177.500 49.944,177.440 48.333,177.333 48.333 C 177.242 48.333,177.167 48.108,177.167 47.833 C 177.167 47.558,177.092 47.333,177.000 47.333 C 176.908 47.333,176.833 47.224,176.833 47.090 C 176.833 46.714,174.894 44.833,174.506 44.833 C 174.319 44.833,174.167 44.758,174.167 44.667 C 174.167 44.575,174.017 44.500,173.833 44.500 C 173.648 44.500,173.500 44.389,173.500 44.250 C 173.500 44.065,173.306 44.000,172.750 44.000 C 172.338 44.000,172.000 43.925,172.000 43.833 C 172.000 43.739,171.528 43.667,170.917 43.667 C 170.306 43.667,169.833 43.594,169.833 43.500 C 169.833 43.404,169.306 43.333,168.583 43.333 C 167.861 43.333,167.333 43.263,167.333 43.167 C 167.333 43.069,166.750 43.000,165.917 43.000 C 165.083 43.000,164.500 42.931,164.500 42.833 C 164.500 42.742,164.382 42.667,164.238 42.667 C 163.493 42.667,163.304 41.847,163.909 41.242 L 164.318 40.833 169.750 40.833 L 175.182 40.833 175.591 40.424 C 176.034 39.981,176.254 33.177,175.833 32.917 C 175.742 32.860,175.667 32.668,175.667 32.490 C 175.667 32.174,175.472 32.167,167.417 32.167 C 162.028 32.167,159.167 32.224,159.167 32.333 M222.375 32.416 C 222.260 32.546,222.167 32.806,222.167 32.993 C 222.167 33.180,222.092 33.333,222.000 33.333 C 221.890 33.333,221.833 38.167,221.833 47.500 C 221.833 56.833,221.890 61.667,222.000 61.667 C 222.092 61.667,222.167 61.817,222.167 62.000 C 222.167 62.183,222.242 62.333,222.333 62.333 C 222.425 62.333,222.500 62.446,222.500 62.583 C 222.500 62.800,223.130 62.833,227.167 62.833 L 231.833 62.833 231.833 62.434 C 231.833 62.215,231.946 61.992,232.083 61.940 C 232.297 61.858,232.333 61.199,232.333 57.422 L 232.333 53.000 236.345 53.000 C 241.360 53.000,240.833 53.498,240.833 48.750 C 240.833 44.002,241.360 44.500,236.345 44.500 L 232.333 44.500 232.333 42.667 L 232.333 40.833 238.008 40.833 L 243.682 40.833 244.091 40.424 C 244.534 39.981,244.754 33.177,244.333 32.917 C 244.242 32.860,244.167 32.668,244.167 32.490 C 244.167 32.058,222.754 31.985,222.375 32.416 M257.375 32.416 C 257.107 32.720,257.066 62.333,257.333 62.333 C 257.425 62.333,257.500 62.446,257.500 62.583 C 257.500 62.803,258.972 62.833,269.750 62.833 L 282.000 62.833 282.000 62.417 C 282.000 62.188,282.075 62.000,282.167 62.000 C 282.275 62.000,282.333 59.389,282.333 54.500 C 282.333 49.611,282.275 47.000,282.167 47.000 C 282.075 47.000,282.000 46.845,282.000 46.655 C 282.000 45.868,281.800 45.833,277.333 45.833 C 273.924 45.833,273.098 45.878,272.905 46.071 C 272.712 46.264,272.667 47.056,272.667 50.238 L 272.667 54.167 269.917 54.167 L 267.167 54.167 267.167 43.405 C 267.167 34.300,267.130 32.606,266.929 32.405 C 266.578 32.054,257.684 32.064,257.375 32.416 M291.542 32.416 C 291.427 32.546,291.333 32.806,291.333 32.993 C 291.333 33.180,291.258 33.333,291.167 33.333 C 291.075 33.333,291.000 33.483,291.000 33.667 C 291.000 33.850,290.925 34.000,290.833 34.000 C 290.742 34.000,290.667 34.225,290.667 34.500 C 290.667 34.775,290.592 35.000,290.500 35.000 C 290.408 35.000,290.333 35.179,290.333 35.399 C 290.333 35.618,290.221 35.841,290.083 35.894 C 289.946 35.946,289.833 36.179,289.833 36.411 C 289.833 36.643,289.758 36.833,289.667 36.833 C 289.575 36.833,289.500 37.096,289.500 37.417 C 289.500 37.737,289.425 38.000,289.333 38.000 C 289.242 38.000,289.167 38.150,289.167 38.333 C 289.167 38.517,289.092 38.667,289.000 38.667 C 288.908 38.667,288.833 38.887,288.833 39.157 C 288.833 39.426,288.758 39.693,288.667 39.750 C 288.575 39.807,288.500 39.999,288.500 40.177 C 288.500 40.354,288.425 40.500,288.333 40.500 C 288.242 40.500,288.167 40.693,288.167 40.929 C 288.167 41.164,288.054 41.470,287.917 41.607 C 287.779 41.745,287.667 42.039,287.667 42.262 C 287.667 42.485,287.592 42.667,287.500 42.667 C 287.408 42.667,287.333 42.817,287.333 43.000 C 287.333 43.183,287.258 43.333,287.167 43.333 C 287.075 43.333,287.000 43.596,287.000 43.917 C 287.000 44.237,286.925 44.500,286.833 44.500 C 286.742 44.500,286.667 44.725,286.667 45.000 C 286.667 45.275,286.592 45.500,286.500 45.500 C 286.408 45.500,286.333 45.837,286.333 46.250 C 286.333 46.663,286.258 47.000,286.167 47.000 C 286.073 47.000,286.000 47.472,286.000 48.083 C 286.000 48.694,285.927 49.167,285.833 49.167 C 285.725 49.167,285.667 51.361,285.667 55.417 C 285.667 59.472,285.725 61.667,285.833 61.667 C 285.925 61.667,286.000 61.817,286.000 62.000 C 286.000 62.183,286.075 62.333,286.167 62.333 C 286.258 62.333,286.333 62.446,286.333 62.583 C 286.333 62.799,286.944 62.833,290.833 62.833 L 295.333 62.833 295.333 62.417 C 295.333 62.188,295.408 62.000,295.500 62.000 C 295.606 62.000,295.667 60.750,295.667 58.583 L 295.667 55.167 299.083 55.167 L 302.500 55.167 302.500 58.750 C 302.500 61.028,302.561 62.333,302.667 62.333 C 302.758 62.333,302.833 62.446,302.833 62.583 C 302.833 63.029,311.884 62.949,312.333 62.500 C 312.711 62.123,312.873 48.000,312.500 48.000 C 312.408 48.000,312.333 47.668,312.333 47.262 C 312.333 46.828,312.230 46.421,312.083 46.274 C 311.946 46.136,311.833 45.831,311.833 45.595 C 311.833 45.360,311.758 45.167,311.667 45.167 C 311.575 45.167,311.500 44.904,311.500 44.583 C 311.500 44.262,311.425 44.000,311.333 44.000 C 311.242 44.000,311.167 43.775,311.167 43.500 C 311.167 43.225,311.092 43.000,311.000 43.000 C 310.908 43.000,310.833 42.850,310.833 42.667 C 310.833 42.483,310.758 42.333,310.667 42.333 C 310.575 42.333,310.500 42.071,310.500 41.750 C 310.500 41.429,310.425 41.167,310.333 41.167 C 310.242 41.167,310.167 40.942,310.167 40.667 C 310.167 40.333,310.083 40.167,309.917 40.167 C 309.761 40.167,309.667 40.009,309.667 39.750 C 309.667 39.521,309.592 39.333,309.500 39.333 C 309.408 39.333,309.333 39.108,309.333 38.833 C 309.333 38.558,309.258 38.333,309.167 38.333 C 309.075 38.333,309.000 38.183,309.000 38.000 C 309.000 37.817,308.925 37.667,308.833 37.667 C 308.742 37.667,308.667 37.404,308.667 37.083 C 308.667 36.762,308.592 36.500,308.500 36.500 C 308.408 36.500,308.333 36.275,308.333 36.000 C 308.333 35.725,308.258 35.500,308.167 35.500 C 308.075 35.500,308.000 35.348,308.000 35.161 C 308.000 34.975,307.887 34.780,307.750 34.727 C 307.607 34.672,307.500 34.424,307.500 34.149 C 307.500 33.884,307.425 33.667,307.333 33.667 C 307.242 33.667,307.167 33.513,307.167 33.326 C 307.167 33.138,306.983 32.801,306.758 32.576 L 306.348 32.167 299.049 32.173 C 292.959 32.178,291.715 32.219,291.542 32.416 M314.000 32.490 C 314.000 32.668,313.925 32.860,313.833 32.917 C 313.731 32.980,313.667 34.370,313.667 36.532 L 313.667 40.045 314.125 40.439 C 314.576 40.826,314.642 40.833,318.125 40.833 L 321.667 40.833 321.667 51.583 C 321.667 58.639,321.724 62.333,321.833 62.333 C 321.925 62.333,322.000 62.446,322.000 62.583 C 322.000 62.800,322.648 62.833,326.833 62.833 L 331.667 62.833 331.667 62.417 C 331.667 62.188,331.742 62.000,331.833 62.000 C 331.943 62.000,332.000 58.361,332.000 51.417 L 332.000 40.833 335.595 40.833 C 340.129 40.833,339.667 41.326,339.667 36.500 C 339.667 33.379,339.621 32.597,339.429 32.405 C 338.996 31.973,314.000 32.056,314.000 32.490 M362.000 32.490 C 362.000 32.668,361.925 32.860,361.833 32.917 C 361.603 33.059,361.603 62.000,361.833 62.000 C 361.925 62.000,362.000 62.188,362.000 62.417 L 362.000 62.833 366.667 62.833 C 370.704 62.833,371.333 62.800,371.333 62.583 C 371.333 62.446,371.408 62.333,371.500 62.333 C 371.608 62.333,371.667 59.944,371.667 55.500 C 371.667 51.742,371.702 48.667,371.744 48.667 C 371.901 48.667,372.833 49.661,372.833 49.828 C 372.833 49.922,373.133 50.309,373.500 50.687 C 373.867 51.064,374.167 51.439,374.167 51.520 C 374.167 51.601,374.279 51.667,374.417 51.667 C 374.554 51.667,374.667 51.785,374.667 51.930 C 374.667 52.074,374.967 52.481,375.333 52.833 C 375.700 53.186,376.000 53.523,376.000 53.582 C 376.000 53.756,376.460 54.167,376.655 54.167 C 376.753 54.167,376.833 54.287,376.833 54.433 C 376.833 54.580,377.058 54.910,377.333 55.167 C 377.608 55.424,377.833 55.716,377.833 55.817 C 377.833 55.918,377.908 56.000,378.000 56.000 C 378.105 56.000,378.167 57.111,378.167 59.000 C 378.167 60.739,378.232 62.000,378.322 62.000 C 378.407 62.000,378.501 62.169,378.530 62.375 L 378.583 62.750 383.152 62.794 C 387.517 62.837,387.734 62.824,388.027 62.510 C 388.492 62.010,388.506 32.751,388.042 32.399 C 387.501 31.988,378.500 32.074,378.500 32.490 C 378.500 32.668,378.425 32.860,378.333 32.917 C 378.229 32.981,378.167 34.668,378.167 37.427 C 378.167 40.253,378.107 41.833,378.000 41.833 C 377.908 41.833,377.833 41.718,377.833 41.578 C 377.833 41.292,376.774 40.167,376.506 40.167 C 376.411 40.167,376.333 40.071,376.333 39.953 C 376.333 39.836,376.183 39.632,376.000 39.500 C 375.817 39.368,375.667 39.161,375.667 39.041 C 375.667 38.783,374.588 37.667,374.339 37.667 C 374.244 37.667,374.167 37.571,374.167 37.453 C 374.167 37.336,374.017 37.132,373.833 37.000 C 373.650 36.868,373.500 36.659,373.500 36.536 C 373.500 36.412,373.087 35.906,372.583 35.409 C 372.079 34.913,371.667 34.431,371.667 34.337 C 371.667 34.244,371.367 33.858,371.000 33.480 C 370.633 33.102,370.333 32.727,370.333 32.647 C 370.333 32.566,370.146 32.500,369.917 32.500 C 369.688 32.500,369.500 32.425,369.500 32.333 C 369.500 32.227,368.139 32.167,365.750 32.167 C 362.149 32.167,362.000 32.180,362.000 32.490 M52.833 40.667 C 52.833 40.758,53.058 40.833,53.333 40.833 C 53.722 40.833,53.833 40.907,53.833 41.167 C 53.833 41.350,53.908 41.500,54.000 41.500 C 54.101 41.500,54.167 42.222,54.167 43.333 C 54.167 44.444,54.101 45.167,54.000 45.167 C 53.908 45.167,53.833 45.317,53.833 45.500 C 53.833 45.759,53.722 45.833,53.333 45.833 C 53.058 45.833,52.833 45.908,52.833 46.000 C 52.833 46.101,52.111 46.167,51.000 46.167 L 49.167 46.167 49.167 43.333 L 49.167 40.500 51.000 40.500 C 52.111 40.500,52.833 40.566,52.833 40.667 M205.667 40.667 C 205.667 40.758,205.783 40.833,205.924 40.833 C 206.066 40.833,206.366 41.017,206.591 41.242 L 207.000 41.652 207.000 47.451 L 207.000 53.250 206.605 53.708 C 206.389 53.960,206.089 54.167,205.939 54.167 C 205.789 54.167,205.667 54.242,205.667 54.333 C 205.667 54.433,205.000 54.500,204.000 54.500 C 203.000 54.500,202.333 54.433,202.333 54.333 C 202.333 54.242,202.108 54.167,201.833 54.167 C 201.558 54.167,201.333 54.092,201.333 54.000 C 201.333 53.908,201.221 53.833,201.083 53.833 C 200.928 53.833,200.833 53.676,200.833 53.417 C 200.833 53.188,200.758 53.000,200.667 53.000 C 200.559 53.000,200.500 51.028,200.500 47.417 C 200.500 43.806,200.559 41.833,200.667 41.833 C 200.758 41.833,200.833 41.683,200.833 41.500 C 200.833 41.315,200.944 41.167,201.083 41.167 C 201.221 41.167,201.333 41.092,201.333 41.000 C 201.333 40.908,201.558 40.833,201.833 40.833 C 202.108 40.833,202.333 40.758,202.333 40.667 C 202.333 40.567,203.000 40.500,204.000 40.500 C 205.000 40.500,205.667 40.567,205.667 40.667 M299.762 41.071 C 299.893 41.202,300.000 41.427,300.000 41.571 C 300.000 41.715,300.075 41.833,300.167 41.833 C 300.258 41.833,300.333 42.096,300.333 42.417 C 300.333 42.737,300.408 43.000,300.500 43.000 C 300.592 43.000,300.667 43.296,300.667 43.657 C 300.667 44.018,300.742 44.360,300.833 44.417 C 300.925 44.473,301.000 44.660,301.000 44.831 C 301.000 45.003,301.112 45.255,301.250 45.393 C 301.387 45.530,301.500 45.836,301.500 46.071 C 301.500 46.307,301.575 46.500,301.667 46.500 C 301.758 46.500,301.833 46.688,301.833 46.917 L 301.833 47.333 299.083 47.333 L 296.333 47.333 296.333 46.750 C 296.333 46.343,296.409 46.167,296.583 46.167 C 296.764 46.167,296.833 45.981,296.833 45.500 C 296.833 45.133,296.908 44.833,297.000 44.833 C 297.092 44.833,297.167 44.571,297.167 44.250 C 297.167 43.929,297.242 43.667,297.333 43.667 C 297.425 43.667,297.500 43.442,297.500 43.167 C 297.500 42.892,297.575 42.667,297.667 42.667 C 297.758 42.667,297.833 42.439,297.833 42.161 C 297.833 41.167,299.127 40.436,299.762 41.071 " stroke="none" fill="#ffffff" fill-rule="evenodd"></path><path id="path1" d="M345.841 9.831 C 343.692 12.006,341.905 13.868,341.871 13.969 C 341.811 14.149,349.737 22.171,349.967 22.163 C 350.031 22.160,351.911 20.329,354.144 18.094 L 358.204 14.030 354.107 9.931 C 351.853 7.677,349.951 5.843,349.879 5.855 C 349.808 5.867,347.991 7.656,345.841 9.831 " stroke="none" fill="#0c949b" fill-rule="evenodd"></path><path id="path2" d="M349.792 5.695 C 349.626 5.801,349.627 5.829,349.796 5.831 C 349.913 5.832,351.853 7.677,354.107 9.931 L 358.204 14.030 354.144 18.094 C 351.911 20.329,350.031 22.160,349.967 22.163 C 349.799 22.169,341.833 14.205,341.833 14.031 C 341.833 13.951,341.983 13.749,342.167 13.583 C 342.350 13.417,342.500 13.200,342.500 13.101 C 342.500 13.001,342.313 13.122,342.083 13.369 C 341.447 14.056,341.400 13.993,345.806 18.386 L 349.945 22.513 354.143 18.308 C 356.451 15.995,358.320 14.044,358.295 13.972 C 358.144 13.533,349.974 5.580,349.792 5.695 M348.853 6.667 C 348.490 7.033,348.247 7.333,348.313 7.333 C 348.378 7.333,348.725 7.033,349.083 6.667 C 349.441 6.300,349.684 6.000,349.624 6.000 C 349.563 6.000,349.216 6.300,348.853 6.667 M346.521 8.931 C 345.936 9.527,345.487 10.043,345.523 10.079 C 345.559 10.115,346.106 9.624,346.738 8.989 C 347.369 8.353,347.818 7.837,347.735 7.841 C 347.652 7.846,347.105 8.336,346.521 8.931 M344.562 10.881 C 343.551 11.939,343.501 12.214,344.504 11.202 C 344.984 10.718,345.345 10.289,345.305 10.250 C 345.266 10.211,344.932 10.494,344.562 10.881 M343.029 12.419 C 342.516 13.009,342.577 13.176,343.100 12.612 C 343.339 12.355,343.502 12.113,343.463 12.074 C 343.423 12.034,343.228 12.190,343.029 12.419 " stroke="none" fill="#219da3" fill-rule="evenodd"></path><path id="path3" d="M351.250 6.833 C 351.887 7.475,352.445 8.000,352.491 8.000 C 352.537 8.000,352.053 7.475,351.417 6.833 C 350.780 6.192,350.221 5.667,350.176 5.667 C 350.130 5.667,350.613 6.192,351.250 6.833 M348.644 6.673 C 348.403 6.945,348.260 7.167,348.327 7.167 C 348.455 7.167,348.869 6.725,349.068 6.375 C 349.256 6.044,349.117 6.142,348.644 6.673 M355.493 11.036 L 358.402 13.989 357.993 14.439 L 357.583 14.890 358.036 14.570 C 358.704 14.098,358.740 14.150,355.542 10.998 L 352.583 8.083 355.493 11.036 M341.523 13.918 C 341.503 14.210,349.539 22.500,349.842 22.500 C 349.892 22.500,348.076 20.649,345.807 18.387 C 343.538 16.125,341.651 14.119,341.614 13.929 C 341.548 13.596,341.545 13.595,341.523 13.918 M356.252 16.165 C 355.989 16.439,355.806 16.690,355.845 16.722 C 355.885 16.755,356.130 16.531,356.391 16.224 C 356.981 15.532,356.894 15.495,356.252 16.165 M353.752 18.665 C 353.489 18.939,353.306 19.184,353.345 19.210 C 353.385 19.235,353.654 19.011,353.944 18.711 C 354.234 18.412,354.417 18.167,354.350 18.167 C 354.284 18.167,354.014 18.391,353.752 18.665 M351.240 21.208 L 350.750 21.750 351.333 21.250 C 351.653 20.975,351.947 20.731,351.985 20.708 C 352.024 20.685,351.982 20.667,351.892 20.667 C 351.802 20.667,351.509 20.910,351.240 21.208 " stroke="none" fill="#57b4b9" fill-rule="evenodd"></path><path id="path4" d="M357.079 15.542 L 355.917 16.750 357.125 15.588 C 358.247 14.508,358.409 14.333,358.287 14.333 C 358.262 14.333,357.718 14.877,357.079 15.542 M355.075 17.542 L 354.417 18.250 355.125 17.591 C 355.784 16.978,355.910 16.833,355.784 16.833 C 355.757 16.833,355.438 17.152,355.075 17.542 M352.575 20.042 L 351.917 20.750 352.625 20.091 C 353.284 19.478,353.410 19.333,353.284 19.333 C 353.257 19.333,352.938 19.652,352.575 20.042 M350.806 21.753 C 350.287 22.256,349.915 22.667,349.979 22.667 C 350.043 22.667,350.502 22.254,351.000 21.750 C 352.170 20.565,352.032 20.567,350.806 21.753 " stroke="none" fill="#78c3c7" fill-rule="evenodd"></path><path id="path5" d="M349.847 5.375 C 349.885 5.398,350.142 5.604,350.417 5.833 L 350.917 6.250 350.513 5.792 C 350.290 5.540,350.034 5.333,349.943 5.333 C 349.852 5.333,349.809 5.352,349.847 5.375 M351.667 7.052 C 351.667 7.081,351.910 7.325,352.208 7.594 L 352.750 8.083 352.260 7.542 C 351.804 7.037,351.667 6.923,351.667 7.052 M354.167 9.552 C 354.167 9.581,354.410 9.825,354.708 10.094 L 355.250 10.583 354.760 10.042 C 354.304 9.537,354.167 9.423,354.167 9.552 M356.667 12.052 C 356.667 12.081,356.910 12.325,357.208 12.594 L 357.750 13.083 357.260 12.542 C 356.804 12.037,356.667 11.923,356.667 12.052 M342.917 15.833 C 343.368 16.292,343.775 16.667,343.821 16.667 C 343.867 16.667,343.535 16.292,343.083 15.833 C 342.632 15.375,342.225 15.000,342.179 15.000 C 342.133 15.000,342.465 15.375,342.917 15.833 M345.083 18.000 C 345.720 18.642,346.279 19.167,346.324 19.167 C 346.370 19.167,345.887 18.642,345.250 18.000 C 344.613 17.358,344.055 16.833,344.009 16.833 C 343.963 16.833,344.447 17.358,345.083 18.000 M348.083 21.000 C 348.997 21.917,349.781 22.667,349.827 22.667 C 349.873 22.667,349.163 21.917,348.250 21.000 C 347.337 20.083,346.552 19.333,346.506 19.333 C 346.460 19.333,347.170 20.083,348.083 21.000 " stroke="none" fill="#8ecdd0" fill-rule="evenodd"></path><path id="path6" d="M347.573 7.542 L 347.083 8.083 347.625 7.594 C 348.130 7.138,348.243 7.000,348.115 7.000 C 348.086 7.000,347.842 7.244,347.573 7.542 M345.073 10.042 L 344.583 10.583 345.125 10.094 C 345.630 9.638,345.743 9.500,345.615 9.500 C 345.586 9.500,345.342 9.744,345.073 10.042 M342.573 12.542 L 342.083 13.083 342.625 12.594 C 343.130 12.138,343.243 12.000,343.115 12.000 C 343.086 12.000,342.842 12.244,342.573 12.542 " stroke="none" fill="#a6d7da" fill-rule="evenodd"></path><path id="path7" d="M350.833 6.052 C 350.833 6.081,351.077 6.325,351.375 6.594 L 351.917 7.083 351.427 6.542 C 350.971 6.037,350.833 5.923,350.833 6.052 M355.167 10.385 C 355.167 10.414,355.410 10.658,355.708 10.927 L 356.250 11.417 355.760 10.875 C 355.304 10.370,355.167 10.257,355.167 10.385 M357.667 12.885 C 357.667 12.914,357.910 13.158,358.208 13.427 L 358.750 13.917 358.260 13.375 C 357.804 12.870,357.667 12.757,357.667 12.885 M341.750 14.833 C 342.108 15.200,342.438 15.500,342.484 15.500 C 342.530 15.500,342.275 15.200,341.917 14.833 C 341.559 14.467,341.228 14.167,341.182 14.167 C 341.137 14.167,341.392 14.467,341.750 14.833 " stroke="none" fill="#bce1e3" fill-rule="evenodd"></path><path id="path8" d="M348.412 6.542 L 347.250 7.750 348.458 6.588 C 349.581 5.508,349.743 5.333,349.621 5.333 C 349.595 5.333,349.051 5.877,348.412 6.542 M345.083 9.833 C 343.986 10.933,343.126 11.833,343.172 11.833 C 343.218 11.833,344.153 10.933,345.250 9.833 C 346.347 8.733,347.207 7.833,347.161 7.833 C 347.116 7.833,346.180 8.733,345.083 9.833 M342.077 12.875 L 341.250 13.750 342.125 12.923 C 342.938 12.154,343.076 12.000,342.952 12.000 C 342.926 12.000,342.532 12.394,342.077 12.875 M357.242 15.708 L 356.583 16.417 357.292 15.758 C 357.950 15.145,358.077 15.000,357.950 15.000 C 357.923 15.000,357.605 15.319,357.242 15.708 M355.240 17.708 L 354.750 18.250 355.292 17.760 C 355.797 17.304,355.910 17.167,355.781 17.167 C 355.752 17.167,355.509 17.410,355.240 17.708 " stroke="none" fill="#d1eaec" fill-rule="evenodd"></path><path id="path9" d="M349.577 5.248 C 349.266 5.488,349.270 5.493,349.667 5.349 C 350.045 5.211,350.243 5.352,351.830 6.890 C 352.791 7.822,353.316 8.294,352.997 7.941 C 350.879 5.597,350.010 4.913,349.577 5.248 M347.240 7.511 C 346.971 7.792,346.863 7.976,347.000 7.920 C 347.224 7.830,347.935 7.000,347.789 7.000 C 347.756 7.000,347.509 7.230,347.240 7.511 M354.746 9.801 C 355.385 10.461,355.937 11.000,355.973 11.000 C 356.097 11.000,354.915 9.748,354.250 9.176 C 353.883 8.861,354.106 9.142,354.746 9.801 M356.910 11.967 C 357.725 12.820,358.093 13.109,357.645 12.545 C 357.317 12.130,356.795 11.621,356.414 11.342 C 356.232 11.209,356.456 11.491,356.910 11.967 M342.573 12.208 L 342.083 12.750 342.625 12.260 C 343.130 11.804,343.243 11.667,343.115 11.667 C 343.086 11.667,342.842 11.910,342.573 12.208 M358.739 13.947 C 358.808 14.127,358.709 14.355,358.465 14.579 C 358.255 14.772,357.784 15.264,357.418 15.673 C 357.029 16.108,357.219 15.969,357.876 15.338 C 358.901 14.355,359.288 13.667,358.816 13.667 C 358.711 13.667,358.678 13.788,358.739 13.947 M342.428 15.750 C 342.739 16.071,343.048 16.333,343.113 16.333 C 343.179 16.333,342.978 16.071,342.667 15.750 C 342.356 15.429,342.047 15.167,341.981 15.167 C 341.915 15.167,342.116 15.429,342.428 15.750 M355.358 17.682 C 354.781 18.240,354.337 18.726,354.372 18.761 C 354.407 18.796,354.916 18.339,355.505 17.745 C 356.858 16.380,356.753 16.334,355.358 17.682 M344.108 17.384 C 344.267 17.596,344.590 17.907,344.824 18.077 C 345.075 18.258,344.979 18.100,344.591 17.692 C 343.859 16.923,343.668 16.801,344.108 17.384 M352.851 20.176 C 352.271 20.731,351.828 21.217,351.866 21.255 C 351.904 21.293,352.416 20.839,353.005 20.245 C 354.354 18.884,354.250 18.836,352.851 20.176 M346.608 19.884 C 346.767 20.096,347.090 20.407,347.324 20.577 C 347.575 20.758,347.479 20.600,347.091 20.192 C 346.359 19.423,346.168 19.301,346.608 19.884 M350.810 22.250 C 350.147 22.953,349.922 22.971,349.259 22.375 L 348.750 21.917 349.240 22.458 C 349.874 23.160,350.128 23.141,350.917 22.333 C 351.275 21.967,351.521 21.667,351.464 21.667 C 351.407 21.667,351.113 21.929,350.810 22.250 " stroke="none" fill="#edf7f7" fill-rule="evenodd"></path></g></svg>