<?xml version="1.0" standalone="yes"?>
<svg xmlns="http://www.w3.org/2000/svg" width="1110" height="196">
<path style="fill:#000000; stroke:none;" d="M0 0L0 196L374 196L548 196L556 196L560 196L570 196L586 196L599 196L639 196L644 196L646 196L654 196L670 196L675 196L691 196L694 196L700 196L710 196L712 196L715 196L723 196L755 196L760 196L768 196L770 196L778 196L786 196L788 196L793 196L797 196L799 196L803 196L807 196L813 196L829 196L833 196L834 196L838 196L842 196L843 196L845 196L846 196L850 196L858 196L860 196L861 196L869 196L874 196L882 196L886 196L891 196L893 196L895 196L896 196L904 196L912 196L916 196L922 196L923 196L924 196L926 196L927 196L933 196L940 196L948 196L952 196L953 196L957 196L967 196L972 196L978 196L984 196L986 196L989 196L996 196L1000 196L1004 196L1006 196L1010 196L1012 196L1017 196L1023 196L1025 196L1030 196L1034 196L1039 196L1040 196L1042 196L1044 196L1046 196L1048 196L1049 196L1050 196L1051 196L1052 196L1053 196L1058 196L1060 196L1061 196L1064 196L1065 196L1066 196L1070 196L1075 196L1083 196L1085 196L1089 196L1090 196L1091 196L1093 196L1094 196L1096 196L1097 196L1099 196L1100 196L1102 196L1103 196L1104 196L1105 196L1106.94 196L1108.5 196L1110 196L1110 184L1110 181L1110 179L1110 178L1110 170L1110 161L1110 0L1106 0L1105 0L1097 0L1096 0L1090 0L1089 0L1087 0L1086 0L1084 0L1081 0L1079 0L1077 0L1075 0L1074 0L1070 0L1062 0L1061 0L1060 0L1044 0L1043 0L1039 0L1038 0L1037 0L1035 0L1034 0L1030 0L1028 0L1027 0L1026 0L1025 0L1021 0L1015 0L1010 0L1002 0L998 0L990 0L986 0L983 0L981 0L977 0L972 0L964 0L963 0L959 0L955 0L953 0L945 0L941 0L940 0L932 0L928 0L926 0L923 0L907 0L903 0L902 0L901 0L897 0L895 0L892 0L889 0L883 0L881 0L878 0L875 0L871 0L868 0L864 0L862 0L858 0L857 0L849 0L845 0L841 0L839 0L838 0L830 0L826 0L822 0L818 0L814 0L812 0L811 0L810 0L809 0L804 0L788 0L760 0L756 0L750 0L749 0L744 0L736 0L726 0L710 0L708 0L705 0L699 0L698 0L681 0L675 0L669 0L661 0L653 0L648 0L645 0L641 0L640 0L630 0L629 0L619 0L614 0L608 0L607 0L599 0L589 0L585 0L556 0L555 0L551 0L540 0L534 0L511 0L362 0L255 0L0 0z"/>
<path style="fill:#ffffff; stroke:none;" d="M970 7L967.944 9.05556L966 11L964 13L960 17L958 19L956 21L953 24L952 25L946 31L942 35L937 40L937.778 41.5L938.306 42.0556L939.111 43.0556L940.028 44L942 46L944 48L949 53L953 57L957 61L965 69L970 74L972 74L975.056 70.9444L977 69L985 61L993 53L1001 45L1002.94 43.0556L1005 41L1004.22 39.5L1003.69 38.9444L1002.89 37.9444L1001.97 37L1000 35L998 33L993 28L991 26L987 22L986 21L984 19L980 15L979 14L976 11L972 7L970 7z"/>
<path style="fill:#e46231; stroke:none;" d="M970 18L962 26L949 39L949 41L950.5 42.5L957 49L965 57L970 62L972 62L976 58L980 54L982 52L983 51L985 49L989 45L993 41L993 39L990.944 36.9444L987 33L983 29L979 25L978 24L976 22L972 18L970 18z"/>
<path style="fill:#f6ccbc; stroke:none;" d="M948 40L949 41L948 40z"/>
<path style="fill:#f6cfc0; stroke:none;" d="M993 40L994 41L993 40z"/>
<path style="fill:#f5c9b8; stroke:none;" d="M949 41L950 42L949 41M992 41L993 42L992 41M950 42L951 43L950 42M991 42L992 43L991 42M951 43L952 44L951 43M990 43L991 44L990 43M952 44L953 45L952 44M989 44L990 45L989 44M953 45L954 46L953 45M988 45L989 46L988 45M954 46L955 47L954 46z"/>
<path style="fill:#f6cdbd; stroke:none;" d="M987 46L988 47L987 46M955 47L956 48L955 47M986 47L987 48L986 47M956 48L957 49L956 48M985 48L986 49L985 48M957 49L958 50L957 49M984 49L985 50L984 49M958 50L959 51L958 50M983 50L984 51L983 50M959 51L960 52L959 51M982 51L983 52L982 51M960 52L961 53L960 52z"/>
<path style="fill:#f7d1c2; stroke:none;" d="M981 52L982 53L981 52M961 53L962 54L961 53M980 53L981 54L980 53M962 54L963 55L962 54M979 54L980 55L979 54M963 55L964 56L963 55M978 55L979 56L978 55M964 56L965 57L964 56M977 56L978 57L977 56M965 57L966 58L965 57M976 57L977 58L976 57z"/>
<path style="fill:#f7d1c3; stroke:none;" d="M970.667 62.3333L971 62.6667L971.333 62.6667L971.333 62.3333L970.667 62.3333z"/>
<path style="fill:#ffffff; stroke:none;" d="M960 82L959 83L959 123L959 134L959 151L959 173L960 174L964 174L970 174L971 174L972 174L976 174L982 174L983 173L983 168L983 154L983 133L983 125L983 124L983 113L983 112L983 101L983 100L983 93L983 89L983 83L982 82L979.944 82L978.944 82L978 82L973 82L971 82L968 82L960 82M552 89.3889L551 89.6111L549 90L547 90.3889L545 90.8611L544 91.1667L543 91.4444L541 92.25L540 92.7778L539 93.25L537 94.4722L535 96.0833L534.028 97.0278L532.306 99L531.111 101L530.333 103L530 104L529.417 106L529.083 108L529.028 109L529 110L529 112L529 118L529 139L529 150L529 152L529 153L529.028 155L529.083 156L529.389 158L529.639 159L530.167 161L530.472 162L530.917 163L531.417 164L532.694 165.917L534.222 167.583L535.083 168.306L537 169.611L538 170.167L539 170.75L540 171.222L542 172.139L543 172.556L544 172.833L545 173.139L547 173.611L549 174L551 174.389L552 174.611L554 174.917L555 174.972L557 175L559 175L567 175L569 175L573 175L575 175L576 175L578 174.917L580 174.611L581 174.389L583 174L585 173.583L586 173.306L588 172.667L590 171.972L591 171.583L593 170.583L595 169.306L596.917 167.778L597.75 166.917L598.528 165.972L599.722 164L600.167 163L600.611 162L601.306 160L601.583 159L601.917 157L601.972 156L602 154L602 153L602 150L602 125L602 113L602 111L602 110L601.972 108L601.917 107L601.583 105L601.306 104L600.611 102L600.167 101L599.139 99L598.528 98.0278L596.917 96.2222L595 94.6944L593 93.4167L591 92.4167L590 92.0278L588 91.3333L586 90.6944L585 90.4167L583 90L581 89.6111L580 89.3889L578 89.0833L577 89.0278L575 89L573 89L564 89L560 89L558 89L556 89L554 89.0833L552 89.3889M70 147L68.8333 149L68.4722 149.556L68 151L32 151L31 152L31 173L32 174L67 174L74 174L76 174L78 173.972L79 173.917L81 173.611L82 173.361L83 173.139L84 172.833L86 172.139L87 171.722L89 170.528L90.9722 168.917L91.9167 167.972L93.5278 166L94.1389 165L95.1667 163L95.9722 161L96.5833 159L96.7778 158L96.9167 157L97 155L97 153L97 152L97 150L97 145L97 142L97 140L96.9722 138L96.9167 137L96.5833 135L96.3056 134L95.5833 132L94.5 130L92.9167 128.028L91 126.25L90 125.472L88 124.278L87 123.861L86 123.444L85 123.167L84 122.861L82 122.389L80 122.056L79 121.944L77 121.611L75 121.222L74 121.083L72 120.917L71 120.778L69 120.389L68 120.222L67 120.083L65 119.972L64 119.917L62 119.528L60.0556 118.806L59.5 118.5L58 118L58.3611 116.5L58.7222 115.972L59.3333 115.056L61.0278 113.722L63 113.111L64 113.028L66 113L68 113L83 113L86 113L88 112.972L89.9722 112.667L90.8889 112.278L91.6667 111.667L92.2778 110.889L92.6667 109.972L92.8889 109L93 107L93 106L93 104L93 99L93 97L93 96L92.9167 94L92.7778 93.0556L92.5833 92.0556L92 90L57 90L54 90L52 90L50 90.0278L49 90.0833L47 90.3889L46 90.6389L45 90.8611L44 91.1667L42 91.8611L41 92.2778L39 93.4722L37 95.0833L36.0278 96.0278L35.0833 97L33.5 99L32.9167 100L32.4167 101L31.6944 103L31.4167 104L31.0833 106L31.0278 107L31 108L31 110L31 111L31 113L31 118L31 121L31 123L31 125L31.0833 127L31.2222 128L31.4167 129L31.6944 130L32.4167 132L33.5 134L35.0833 135.972L37 137.75L38 138.5L40 139.583L42 140.333L43 140.667L44 141L46 141.583L47 141.778L49 142L51 142.222L53 142.611L54 142.778L55 142.917L57 143.083L58 143.222L60 143.611L61 143.778L62 143.917L64 144.083L65 144.25L65.9722 144.5L67.7222 145.389L68.5278 145.944L68.9167 146.306L70 147M110 90L109 91L109 173L110 174L135 174L136 173L136 150L152 150L154 150L155 150L157 149.972L158 149.917L160 149.611L161 149.361L163 148.861L164 148.611L166 147.972L167 147.583L169 146.5L170.972 144.917L171.917 143.972L172.75 143L173.528 142L174.139 141L174.722 140L175.167 139L175.972 137L176.583 135L176.917 133L176.972 132L177 131L177 129L177 127L177 123L177 113L177 111L177 110L177 109L176.917 107L176.778 106L176.583 105L175.972 103L175.167 101L174.722 100L173.528 98L172.75 97L171.917 96.0278L170 94.25L169 93.5L167 92.4167L166 92.0278L164 91.3889L163 91.1389L161 90.6389L160 90.3889L158 90.0833L157 90.0278L156 90L154 90L149 90L110 90M190 90L189 91L189 173L190 174L251 174L252 173L252 152L251 151L216 151L216 142L242 142L242.583 139.944L242.778 138.944L242.917 138L243 136L243 135L243 134L243 132L243 129L243 128L243 127L242.917 125L242.778 124.056L242.583 123.056L242 121L216 121L216 113L251 113L252 112L252 91L251 90L190 90M266 90L265.417 92.0556L265.222 93.0556L265.083 94L265 96L265 98L265 104L265 122L265 155L265 164L265 166L265 167L265 168L265.083 170L265.222 170.944L265.417 171.944L266 174L333 174L334 173L334 141L334 136L334 134L333.889 132L333.667 131.028L333.278 130.111L332.667 129.333L330.972 128.333L330 128.111L329 128.028L328 128L326 128L325 128L323 128L318 128L316 128L315 128L314 128L312 128.083L311.056 128.222L310.056 128.417L308 129L308 151L293 151L293 111L293 101L293 99L293 98L292.917 96L292.583 94L291.972 92.0556L291.806 91.5L291 90L266 90M348 90L347.028 91.5L346.444 93.0556L346.083 95L346 97L346 98L346 100L346 110L346 153L346 163L346 166L346 167L346.083 169L346.444 170.944L347.028 172.5L348 174L414 174L415 173L415 129L412.944 128.417L411.944 128.222L411 128.083L409 128L408 128L407 128L405 128L400 128L398 128L397 128L395 128L394 128.028L393 128.111L392.028 128.333L390.333 129.333L389.722 130.111L389.333 131.028L389.028 133L389 135L389 137L389 151L374 151L374 112L374 101L374 98L374 97L374 96L373.917 94L373.778 93.0556L373.583 92.0556L373 90L348 90M465 147L463.833 149L463.472 149.556L463 151L427 151L426 152L426 173L427 174L462 174L469 174L471 174L473 173.972L474 173.917L476 173.611L477 173.361L478 173.139L479 172.833L481 172.139L482 171.722L484 170.528L485.972 168.917L486.917 167.972L488.528 166L489.139 165L490.167 163L490.972 161L491.583 159L491.778 158L491.917 157L492 155L492 153L492 152L492 150L492 145L492 142L492 140L491.972 138L491.917 137L491.583 135L491.306 134L490.583 132L489.5 130L487.917 128.028L486 126.25L485 125.472L483 124.278L482 123.861L481 123.444L480 123.167L479 122.861L477 122.389L475 122.056L474 121.944L472 121.611L470 121.222L469 121.083L467 120.917L466 120.778L464 120.389L463 120.222L462 120.083L460 119.972L459 119.917L457 119.528L455.056 118.806L454.5 118.5L453 118L453.361 116.5L453.722 115.972L454.333 115.056L456.028 113.722L458 113.111L459 113.028L461 113L463 113L478 113L481 113L483 112.972L484.972 112.667L485.889 112.278L486.667 111.667L487.278 110.889L487.667 109.972L487.889 109L488 107L488 106L488 104L488 99L488 97L488 96L487.917 94L487.778 93.0556L487.583 92.0556L487 90L452 90L449 90L447 90L445 90.0278L444 90.0833L442 90.3889L441 90.6389L440 90.8611L439 91.1667L437 91.8611L436 92.2778L434 93.4722L432 95.0833L431.028 96.0278L430.083 97L428.5 99L427.917 100L427.417 101L426.694 103L426.417 104L426.083 106L426.028 107L426 108L426 110L426 111L426 113L426 118L426 121L426 123L426 125L426.083 127L426.222 128L426.417 129L426.694 130L427.417 132L428.5 134L430.083 135.972L432 137.75L433 138.5L435 139.583L437 140.333L438 140.667L439 141L441 141.583L442 141.778L444 142L446 142.222L448 142.611L449 142.778L450 142.917L452 143.083L453 143.222L455 143.611L456 143.778L457 143.917L459 144.083L460 144.25L460.972 144.5L462.722 145.389L463.528 145.944L463.917 146.306L465 147M618 90L617.028 91.5L616.444 93.0556L616.083 95L616 97L616 98L616 100L616 101L616 110L616 153L616 154L616 163L616 166L616 167L616.083 169L616.444 170.944L617.028 172.5L618 174L623 174L630 174L643 174L643.583 171.944L643.778 170.944L643.917 170L644 168L644 166L644 162L644 147L647.056 147L653 147L657 147L667 147L668 146L668 125L667 124L644 124L644 113L648 113L664 113L668 113L671 113L673 112.972L674.972 112.667L675.889 112.278L676.667 111.667L677.667 109.972L677.889 109L677.972 108L678 107L678 105L678 103L678 99L678 97L678 96L677.917 94L677.778 93.0556L677.583 92.0556L677 90L654 90L648 90L647 90L642 90L635 90L633 90L630 90L626 90L618 90M715 90L714 91L714 99L714 111L714 173L715 174L747 174L749 174L750 174L756 174L758 174L761 174L767 174L768 174L772 174L782 174L782.583 171.944L782.778 170.944L782.917 170L783 168L783 166L783 161L783 143L783 139L783 137L783 135L782.917 133L782.556 131.056L781.972 129.5L781 128L758 128L757 129L757 151L741 151L741 149.5L741 91L740 90L734 90L732 90L731 90L727 90L726 90L722 90L715 90M810 90L809 91.5L808.778 92.0556L808.222 93.0556L807.833 94L807.389 95L806.611 97L805.806 99L805.389 100L804.667 102L804.333 103L803.611 105L802.806 107L802.389 108L801.611 110L800.806 112L800.389 113L800.028 114L799.667 115L799.333 116L798.611 118L797.806 120L797.389 121L797.028 122L796.667 123L796 125L795.389 127L795.139 128L794.639 130L794.389 131L794.056 133L793.944 134L793.778 135L793.611 136L793.389 137L793.083 139L793.028 140L793 142L793 144L793 153L793 163L793 166L793 167L793.083 169L793.444 170.944L794.028 172.5L795 174L806 174L811 174L819 174L819.583 171.944L819.778 170.944L819.917 170L820 168L820 167L820 166L820 163L820 153L828 153L836 153L840 153L840 173L841 174L849 174L852 174L854 174L857 174L858 174L866 174L867 173L867 170.944L867 162L867 149L867 141L867 139L867 138L866.917 136L866.778 135L866.389 133L866 131L865.583 129L865 127L864.333 125L863.667 123L863.333 122L862.611 120L862.194 119L861.389 117L860.667 115L860.333 114L859.611 112L859.194 111L858.389 109L857.611 107L856.806 105L856.389 104L855.667 102L855.333 101L854.611 99L854.194 98L853.389 96L852.583 94L851.5 92.1111L850.75 91.3333L849.917 90.7222L848.972 90.3333L848 90.1111L846 90L845 90L843 90L838 90L836 90L831 90L830 90L813.056 90L810 90M872 90L871.417 92.0556L871.222 93.0556L871.083 94L871 96L871 97L871 99L871 104L871 106L871 107L871.111 109L871.722 110.889L872.333 111.667L873.111 112.278L874.028 112.667L876 112.972L877 113L879 113L881 113L884 113L888 113L891.5 113L893 113L893 115.056L893 120L893 122L893 135L893 173L894 174L898 174L904 174L920 174L920.583 171.944L920.778 170.944L920.917 170L921 168L921 167L921 166L921 163L921 152L921 113L929 113L934 113L936 113L937 113L941 113L942 112L942 91L941 90L932 90L924 90L920 90L919 90L914 90L909 90L908 90L900 90L896 90L891 90L887 90L884 90L880 90L872 90M1005 90L1004.42 92.0556L1004.22 93.0556L1004.08 94L1004 96L1004 98L1004 104L1004 112L1004 122L1004 129L1004 137L1004 145L1004 155L1004 159L1004 164L1004 166L1004 167L1004 168L1004.08 170L1004.22 170.944L1004.42 171.944L1005 174L1007.06 174L1010 174L1012 174L1017 174L1025 174L1030 174L1031 173L1031 134L1032.97 136.056L1034.61 138L1035.39 139L1037.06 141L1037.94 142L1039.61 144L1040.39 145L1042.08 147L1043.92 149L1045.61 151L1047.19 153L1048.69 155L1049.28 156L1049.67 157L1049.97 159L1050 160L1050 161L1050 163L1050 166L1050 167L1050 168L1050.08 170L1050.22 170.944L1050.42 171.944L1051 174L1055 174L1063 174L1064 174L1068 174L1076 174L1077 173L1077 91L1076 90L1073.94 90L1072.94 90L1069 90L1068 90L1067 90L1059 90L1058 90L1056 90L1054.06 90L1051 90L1050.42 92.0556L1050.22 93.0556L1050.08 94L1050 96L1050 98L1050 103L1050 118L1048.75 116.5L1048.33 115.944L1046.78 114L1045.92 113L1044.08 111L1043.22 110L1042.39 109L1040.78 107L1039.92 106L1038.08 104L1036.39 102L1035.61 101L1033.94 99L1033.06 98L1031.39 96L1030.61 95L1028.92 93.0833L1027 91.5L1025 90.5L1024 90.25L1022 90.0278L1020 90L1018 90L1014 90L1013 90L1005 90z"/>
<path style="fill:#000000; stroke:none;" d="M136 112L136 129L141 129L143 129L144 128.972L145 128.917L146.944 128.611L148.5 128.25L150 128L150.583 125.944L150.778 124.944L150.917 124L151 122L151 121L151 120L151 119L150.917 117L150.778 116.056L150.583 115.056L150 113L148.5 112.75L146.944 112.389L145 112.083L144 112.028L143 112L141 112L136 112M561 112.417L559.083 113.111L558.25 113.639L557.5 114.306L556.5 116.028L556.083 118L556 120L556 121L556 123L556 126L556 137L556 140L556 142L556 144L556.083 146L556.25 147L556.944 148.889L557.5 149.694L558.25 150.361L560.028 151.278L561 151.583L563 151.917L564 151.972L566 152L567 152L569 151.917L570 151.75L571 151.5L572.889 150.5L574.278 148.917L574.889 147L574.972 146L575 145L575 143L575 141L575 136L575 126L575 123L575 121L575 119L574.972 118L574.889 117L574.278 115.083L573.667 114.25L572.889 113.5L571 112.5L569 112.083L567 112L566 112L565 112L563 112.083L562 112.222L561 112.417M821 132L829 132L834.944 132L838 132L837.917 130.5L837.778 129.944L837.583 128.944L837 127L836.333 125L836 124L835.694 123L835.389 122L835.139 121L834.611 119L834.306 118L833.639 116.056L833.167 115.056L832.972 114.5L832 113L830.5 113.028L828.972 113.333L828.111 113.722L827.306 114.333L826.111 116.028L825.694 117L825.333 118L824.667 120L824 122L823.694 123L823.389 124L822.861 126L822.611 127L822.306 128L821.667 129.944L821.444 130.5L821 132z"/>
</svg>
